<?xml version="1.0" encoding="UTF-8"?>
<svg version="1.1" xmlns="http://www.w3.org/2000/svg" width="317" height="468">
<path d="M0 0 C1.04929687 -0.01417969 2.09859375 -0.02835938 3.1796875 -0.04296875 C6.06047071 0.18245063 7.68740208 0.69785683 10.125 2.1875 C8.475 2.8475 6.825 3.5075 5.125 4.1875 C5.125 4.8475 5.125 5.5075 5.125 6.1875 C4.465 6.1875 3.805 6.1875 3.125 6.1875 C3.125 7.1775 3.125 8.1675 3.125 9.1875 C5.765 9.1875 8.405 9.1875 11.125 9.1875 C11.62 11.1675 11.62 11.1675 12.125 13.1875 C13.2696875 13.3421875 13.2696875 13.3421875 14.4375 13.5 C17.42513204 14.26427796 18.33783059 14.71950415 20.125 17.1875 C21.3125 20.375 21.3125 20.375 22.125 23.1875 C19.485 22.5275 16.845 21.8675 14.125 21.1875 C14.81335938 22.15236328 14.81335938 22.15236328 15.515625 23.13671875 C20.32752315 30.22314859 22.92882325 36.94921018 25.125 45.1875 C28.25683656 56.75120421 34.80053473 65.2884496 43.03686523 73.77246094 C45.58680615 76.41245783 47.75726398 78.74743668 49.125 82.1875 C49.785 82.1875 50.445 82.1875 51.125 82.1875 C54.68000422 86.04414095 56.47422448 90.00964408 56.5625 95.25 C56.34632333 99.48837287 55.51607515 103.18815893 54.125 107.1875 C53.795 107.1875 53.465 107.1875 53.125 107.1875 C53.125 103.5575 53.125 99.9275 53.125 96.1875 C52.465 96.1875 51.805 96.1875 51.125 96.1875 C51.125 94.5375 51.125 92.8875 51.125 91.1875 C50.465 91.1875 49.805 91.1875 49.125 91.1875 C46.125 86.80288462 46.125 86.80288462 46.125 84.1875 C45.465 84.1875 44.805 84.1875 44.125 84.1875 C43.8775 83.40375 43.63 82.62 43.375 81.8125 C41.93849995 78.7958499 41.07779169 78.47184435 38.125 77.1875 C39.09264296 80.53098176 40.10509696 83.8596092 41.125 87.1875 C41.68767578 89.06501953 41.68767578 89.06501953 42.26171875 90.98046875 C42.67334023 92.29983504 43.08609735 93.61884757 43.5 94.9375 C43.87898437 96.16984375 44.25796875 97.4021875 44.6484375 98.671875 C46.46556776 102.99837563 48.77265573 107.01132786 53.125 109.1875 C54.125 110.85416667 55.125 112.52083333 56.125 114.1875 C56.785 114.5175 57.445 114.8475 58.125 115.1875 C58.125 115.8475 58.125 116.5075 58.125 117.1875 C58.681875 117.455625 59.23875 117.72375 59.8125 118 C62.33725334 119.29649496 64.76214484 120.61226323 67.125 122.1875 C67.125 122.8475 67.125 123.5075 67.125 124.1875 C68.775 124.8475 70.425 125.5075 72.125 126.1875 C72.125 126.8475 72.125 127.5075 72.125 128.1875 C72.785 128.1875 73.445 128.1875 74.125 128.1875 C78.17483923 134.32362004 78.17483923 134.32362004 77.9375 138.4375 C77.36807799 140.36477451 76.76050204 142.28099387 76.125 144.1875 C75.465 144.1875 74.805 144.1875 74.125 144.1875 C73.795 145.1775 73.465 146.1675 73.125 147.1875 C72.135 144.7125 72.135 144.7125 71.125 142.1875 C70.795 142.1875 70.465 142.1875 70.125 142.1875 C69.94324219 142.92355469 69.76148438 143.65960938 69.57421875 144.41796875 C67.07754833 154.11017135 67.07754833 154.11017135 64.125 158.1875 C66.39915287 161.55838267 66.39915287 161.55838267 70.125 163.1875 C71.3359375 165.33203125 71.3359375 165.33203125 72.5 168 C74.49214134 172.24990152 76.35125749 174.35719312 80.125 177.1875 C80.75 179.4375 80.75 179.4375 81.125 182.1875 C81.640625 183.280625 82.15625 184.37375 82.6875 185.5 C89.54067293 203.68465689 80.19751909 227.31840277 72.88671875 244.015625 C70.58563248 249.33740997 69.73521078 253.83529032 69.40625 259.625 C69.00703002 263.26233761 67.78142077 265.94667676 66.125 269.1875 C66.7128125 269.42726563 67.300625 269.66703125 67.90625 269.9140625 C74.68720162 273.80594671 78.06444593 282.48981656 80.22265625 289.640625 C81.92613608 296.33655438 83.31326572 303.09500063 84.64794922 309.87280273 C85.28885465 312.98253884 86.03229317 316.0662208 86.79003906 319.14941406 C87.31663942 322.35353925 86.79700435 325.02907957 86.125 328.1875 C85.465 328.1875 84.805 328.1875 84.125 328.1875 C84.125 328.8475 84.125 329.5075 84.125 330.1875 C82.13810269 331.54028115 80.13754782 332.87318305 78.125 334.1875 C77.795 334.8475 77.465 335.5075 77.125 336.1875 C72.835 335.8575 68.545 335.5275 64.125 335.1875 C63.795 333.8675 63.465 332.5475 63.125 331.1875 C62.49851563 331.07792969 61.87203125 330.96835937 61.2265625 330.85546875 C60.40929687 330.69691406 59.59203125 330.53835938 58.75 330.375 C57.53183594 330.14876953 57.53183594 330.14876953 56.2890625 329.91796875 C54.125 329.1875 54.125 329.1875 52.125 326.1875 C51.87967063 324.04923155 51.72262003 321.90008112 51.625 319.75 C51.41758628 314.16109216 51.41758628 314.16109216 49.125 309.1875 C48.320625 308.754375 47.51625 308.32125 46.6875 307.875 C44.125 306.1875 44.125 306.1875 43.125 302.75 C42.54839623 300.80548264 42.54839623 300.80548264 41.125 299.1875 C37.86855374 297.8909921 34.67501715 297.05974497 31.25390625 296.3046875 C27.5182917 294.97087257 26.41611116 293.33966613 24.125 290.1875 C23.135 289.8575 22.145 289.5275 21.125 289.1875 C21.07070041 287.43784642 21.03207177 285.68770213 21 283.9375 C20.97679687 282.96296875 20.95359375 281.9884375 20.9296875 280.984375 C21.12637219 278.1678502 21.67931084 276.57800964 23.125 274.1875 C19.83351757 275.32249394 19.1290131 276.18033376 17.375 279.3125 C16.9625 280.26125 16.55 281.21 16.125 282.1875 C14.805 282.1875 13.485 282.1875 12.125 282.1875 C10.475 278.5575 8.825 274.9275 7.125 271.1875 C5.805 271.1875 4.485 271.1875 3.125 271.1875 C3.125 271.8475 3.125 272.5075 3.125 273.1875 C-2.36446087 274.30779814 -5.70930559 273.97967969 -10.875 272.1875 C-11.33390625 272.71859375 -11.7928125 273.2496875 -12.265625 273.796875 C-12.87921875 274.50328125 -13.4928125 275.2096875 -14.125 275.9375 C-14.76308594 276.67742187 -15.40117187 277.41734375 -16.05859375 278.1796875 C-17.875 280.1875 -17.875 280.1875 -20.1875 282.0625 C-22.14729925 284.53039535 -22.34495787 286.04894355 -22.875 289.125 C-23.65010102 293.5671756 -24.41482232 296.08221234 -27.875 299.1875 C-29.38305148 300.02348506 -30.90534778 300.83405129 -32.4375 301.625 C-36.67204709 303.86355763 -38.26711086 305.54248693 -39.875 310.1875 C-40.12636719 310.86941406 -40.37773437 311.55132812 -40.63671875 312.25390625 C-42.49755586 317.47332742 -43.78432812 322.75980349 -44.875 328.1875 C-48.15342887 325.07972907 -49.65704945 322.31251785 -50.125 317.75 C-49.8261316 314.68659892 -48.94545029 312.06433515 -47.875 309.1875 C-47.215 309.1875 -46.555 309.1875 -45.875 309.1875 C-45.54090351 307.85435769 -45.20782147 306.52096119 -44.875 305.1875 C-44.62621094 304.20136719 -44.37742187 303.21523438 -44.12109375 302.19921875 C-41.31306366 292.64400171 -41.31306366 292.64400171 -42.875 283.1875 C-42.94534115 280.45738415 -42.87209374 277.74185718 -42.8125 275.01171875 C-42.87302596 272.27670189 -43.25516055 269.84603013 -43.875 267.1875 C-44.535 267.1875 -45.195 267.1875 -45.875 267.1875 C-46.08932579 260.54340042 -45.38733701 254.65544133 -43.875 248.1875 C-44.535 247.8575 -45.195 247.5275 -45.875 247.1875 C-45.215 246.5275 -44.555 245.8675 -43.875 245.1875 C-43.875 243.8675 -43.875 242.5475 -43.875 241.1875 C-44.535 242.8375 -45.195 244.4875 -45.875 246.1875 C-46.205 246.1875 -46.535 246.1875 -46.875 246.1875 C-47.205 244.2075 -47.535 242.2275 -47.875 240.1875 C-48.535 240.1875 -49.195 240.1875 -49.875 240.1875 C-49.854375 239.053125 -49.83375 237.91875 -49.8125 236.75 C-49.45922523 233.37174326 -49.45922523 233.37174326 -50.875 232.1875 C-50.91592937 229.85452567 -50.91741723 227.52044775 -50.875 225.1875 C-51.535 224.8575 -52.195 224.5275 -52.875 224.1875 C-52.875 222.1875657 -52.80451855 220.18640232 -52.6640625 218.19140625 C-52.50101972 214.77138983 -52.42729616 211.58478206 -52.875 208.1875 C-55.77912546 205.83427204 -55.77912546 205.83427204 -58.875 204.1875 C-59.44066087 201.35364998 -59.16652623 199.10276234 -58.875 196.1875 C-59.205 196.8475 -59.535 197.5075 -59.875 198.1875 C-60.535 198.1875 -61.195 198.1875 -61.875 198.1875 C-64.55592691 195.50657309 -64.26170257 193.79582637 -64.5 190.0625 C-64.57476562 188.96679688 -64.64953125 187.87109375 -64.7265625 186.7421875 C-64.77554688 185.89914063 -64.82453125 185.05609375 -64.875 184.1875 C-61.65860346 182.44184889 -59.55486596 181.983063 -55.875 182.1875 C-56.82375 181.73375 -57.7725 181.28 -58.75 180.8125 C-61.875 179.1875 -61.875 179.1875 -63.875 177.1875 C-65.195 177.1875 -66.515 177.1875 -67.875 177.1875 C-68.865 176.1975 -68.865 176.1975 -69.875 175.1875 C-69.875 174.1975 -69.875 173.2075 -69.875 172.1875 C-70.535 172.1875 -71.195 172.1875 -71.875 172.1875 C-72.205 173.1775 -72.535 174.1675 -72.875 175.1875 C-73.58735209 173.52534512 -74.29912775 171.86294056 -75.0078125 170.19921875 C-75.57459869 168.88437692 -76.15230751 167.57417573 -76.7421875 166.26953125 C-78.03147565 163.39012105 -78.875 161.38070442 -78.875 158.1875 C-79.535 158.1875 -80.195 158.1875 -80.875 158.1875 C-84.875 151.6875 -84.875 151.6875 -84.875 147.1875 C-88.90091332 146.7632447 -88.90091332 146.7632447 -91.375 149.25 C-95.47114747 154.46212573 -96.42961607 161.84073035 -97.875 168.1875 C-98.535 168.1875 -99.195 168.1875 -99.875 168.1875 C-99.875 171.4875 -99.875 174.7875 -99.875 178.1875 C-100.535 178.1875 -101.195 178.1875 -101.875 178.1875 C-102.37 180.1675 -102.37 180.1675 -102.875 182.1875 C-104 177.4375 -104 177.4375 -102.875 175.1875 C-103.535 175.1875 -104.195 175.1875 -104.875 175.1875 C-105.37 177.1675 -105.37 177.1675 -105.875 179.1875 C-106.865 178.8575 -107.855 178.5275 -108.875 178.1875 C-108.545 173.5675 -108.215 168.9475 -107.875 164.1875 C-107.215 164.1875 -106.555 164.1875 -105.875 164.1875 C-106.205 162.2075 -106.535 160.2275 -106.875 158.1875 C-106.215 158.1875 -105.555 158.1875 -104.875 158.1875 C-104.875 156.8675 -104.875 155.5475 -104.875 154.1875 C-104.215 154.1875 -103.555 154.1875 -102.875 154.1875 C-102.771875 153.630625 -102.66875 153.07375 -102.5625 152.5 C-101.73321592 149.7105899 -100.53200944 147.5735936 -98.875 145.1875 C-98.215 145.1875 -97.555 145.1875 -96.875 145.1875 C-96.606875 144.465625 -96.33875 143.74375 -96.0625 143 C-93.81876672 137.68589486 -90.99477178 134.20427748 -86.875 130.1875 C-84.04659158 126.97437104 -83.13518582 124.08926647 -82.1875 119.9375 C-81.81044922 118.32101563 -81.81044922 118.32101563 -81.42578125 116.671875 C-81.24402344 115.85203125 -81.06226562 115.0321875 -80.875 114.1875 C-79.225 115.1775 -77.575 116.1675 -75.875 117.1875 C-77.195 119.4975 -78.515 121.8075 -79.875 124.1875 C-78.57859622 123.59356618 -77.28801161 122.98692011 -76 122.375 C-75.28070313 122.03855469 -74.56140625 121.70210938 -73.8203125 121.35546875 C-71.56957194 120.19282903 -71.56957194 120.19282903 -69.875 117.1875 C-69.215 117.1875 -68.555 117.1875 -67.875 117.1875 C-67.730625 116.56875 -67.58625 115.95 -67.4375 115.3125 C-66.875 113.1875 -66.875 113.1875 -65.875 111.1875 C-66.865 110.6925 -66.865 110.6925 -67.875 110.1875 C-67.359375 109.23875 -66.84375 108.29 -66.3125 107.3125 C-64.22748896 102.56763843 -65.0427263 98.17111483 -65.875 93.1875 C-66.04515625 94.14011719 -66.2153125 95.09273438 -66.390625 96.07421875 C-66.63296875 97.32847656 -66.8753125 98.58273438 -67.125 99.875 C-67.35703125 101.11636719 -67.5890625 102.35773438 -67.828125 103.63671875 C-68.92112272 107.34393863 -70.27299082 109.37582479 -72.875 112.1875 C-74.16182421 109.61385158 -73.63507347 108.78926357 -72.875 106.0625 C-71.74327231 101.40732677 -72.02214283 97.87821442 -72.875 93.1875 C-73.865 97.8075 -74.855 102.4275 -75.875 107.1875 C-76.205 107.1875 -76.535 107.1875 -76.875 107.1875 C-76.73348172 105.1038691 -76.58662064 103.02060062 -76.4375 100.9375 C-76.35628906 99.77734375 -76.27507812 98.6171875 -76.19140625 97.421875 C-75.94075002 94.85961131 -75.51127473 92.65898035 -74.875 90.1875 C-74.47763887 85.03843811 -74.47763887 85.03843811 -75.875 80.1875 C-75.26921747 78.16822489 -74.60580266 76.16496603 -73.875 74.1875 C-75.0815625 74.001875 -75.0815625 74.001875 -76.3125 73.8125 C-77.5809375 73.503125 -77.5809375 73.503125 -78.875 73.1875 C-79.37 72.1975 -79.37 72.1975 -79.875 71.1875 C-82.35 71.6825 -82.35 71.6825 -84.875 72.1875 C-85.36877785 67.24972148 -84.18309245 64.54400283 -81.8984375 60.35546875 C-80.21803544 56.79583843 -79.55362656 53.04495624 -78.875 49.1875 C-81.185 48.5275 -83.495 47.8675 -85.875 47.1875 C-85.875 46.1975 -85.875 45.2075 -85.875 44.1875 C-85.215 44.1875 -84.555 44.1875 -83.875 44.1875 C-83.875 43.5275 -83.875 42.8675 -83.875 42.1875 C-83.215 42.1875 -82.555 42.1875 -81.875 42.1875 C-81.875 41.5275 -81.875 40.8675 -81.875 40.1875 C-80.58586513 39.51595067 -79.29359796 38.85041141 -78 38.1875 C-77.28070313 37.81625 -76.56140625 37.445 -75.8203125 37.0625 C-73.875 36.1875 -73.875 36.1875 -71.875 36.1875 C-71.875 35.5275 -71.875 34.8675 -71.875 34.1875 C-71.215 34.1875 -70.555 34.1875 -69.875 34.1875 C-69.606875 33.218125 -69.33875 32.24875 -69.0625 31.25 C-68.670625 30.239375 -68.27875 29.22875 -67.875 28.1875 C-66.885 27.8575 -65.895 27.5275 -64.875 27.1875 C-64.875 26.5275 -64.875 25.8675 -64.875 25.1875 C-64.215 25.1875 -63.555 25.1875 -62.875 25.1875 C-62.875 24.5275 -62.875 23.8675 -62.875 23.1875 C-60.90447797 21.75887153 -58.93591716 20.47337139 -56.875 19.1875 C-56.27171875 18.76984375 -55.6684375 18.3521875 -55.046875 17.921875 C-48.85712699 13.74505317 -42.39873639 11.1875 -34.875 11.1875 C-34.875 10.1975 -34.875 9.2075 -34.875 8.1875 C-35.535 8.1875 -36.195 8.1875 -36.875 8.1875 C-36.875 7.1975 -36.875 6.2075 -36.875 5.1875 C-34.62526553 5.133362 -32.37515617 5.09464509 -30.125 5.0625 C-28.87203125 5.03929687 -27.6190625 5.01609375 -26.328125 4.9921875 C-23.06025472 5.17702179 -21.65810312 5.69334556 -18.875 7.1875 C-17.17383624 6.24738318 -15.50995707 5.23854383 -13.875 4.1875 C-10.5625 3.5 -10.5625 3.5 -7.875 3.1875 C-7.875 2.5275 -7.875 1.8675 -7.875 1.1875 C-5.17835792 -0.16082104 -3.00912479 0.01839318 0 0 Z M-33.875 19.1875 C-33.875 19.8475 -33.875 20.5075 -33.875 21.1875 C-33.215 20.8575 -32.555 20.5275 -31.875 20.1875 C-32.535 19.8575 -33.195 19.5275 -33.875 19.1875 Z M1.125 18.1875 C1.125 18.8475 1.125 19.5075 1.125 20.1875 C0.135 19.8575 -0.855 19.5275 -1.875 19.1875 C-1.875 20.1775 -1.875 21.1675 -1.875 22.1875 C0.435 22.8475 2.745 23.5075 5.125 24.1875 C3.97326645 21.71949953 3.07716435 20.13966435 1.125 18.1875 Z M7.125 21.1875 C7.455 21.8475 7.785 22.5075 8.125 23.1875 C8.455 22.5275 8.785 21.8675 9.125 21.1875 C8.465 21.1875 7.805 21.1875 7.125 21.1875 Z M9.125 23.1875 C9.455 24.5075 9.785 25.8275 10.125 27.1875 C10.125 25.8675 10.125 24.5475 10.125 23.1875 C9.795 23.1875 9.465 23.1875 9.125 23.1875 Z M-37.875 26.1875 C-37.875 26.8475 -37.875 27.5075 -37.875 28.1875 C-36.885 27.8575 -35.895 27.5275 -34.875 27.1875 C-35.865 26.8575 -36.855 26.5275 -37.875 26.1875 Z M-25.875 36.1875 C-25.875 37.1775 -25.875 38.1675 -25.875 39.1875 C-25.215 39.1875 -24.555 39.1875 -23.875 39.1875 C-23.875 38.1975 -23.875 37.2075 -23.875 36.1875 C-24.535 36.1875 -25.195 36.1875 -25.875 36.1875 Z M-52.875 40.1875 C-52.875 40.8475 -52.875 41.5075 -52.875 42.1875 C-51.885 42.1875 -50.895 42.1875 -49.875 42.1875 C-49.875 41.5275 -49.875 40.8675 -49.875 40.1875 C-50.865 40.1875 -51.855 40.1875 -52.875 40.1875 Z M-32.875 40.1875 C-32.215 41.5075 -31.555 42.8275 -30.875 44.1875 C-30.545 43.1975 -30.215 42.2075 -29.875 41.1875 C-30.865 40.8575 -31.855 40.5275 -32.875 40.1875 Z M-72.875 42.1875 C-71.875 46.1875 -71.875 46.1875 -71.875 46.1875 Z M-40.875 42.1875 C-40.36896008 44.35624252 -39.87516187 46.18717627 -38.875 48.1875 C-38.215 48.1875 -37.555 48.1875 -36.875 48.1875 C-36.875 47.1975 -36.875 46.2075 -36.875 45.1875 C-37.535 45.1875 -38.195 45.1875 -38.875 45.1875 C-38.875 44.1975 -38.875 43.2075 -38.875 42.1875 C-39.535 42.1875 -40.195 42.1875 -40.875 42.1875 Z M-22.875 43.1875 C-22.43731549 45.81360706 -22.00193161 47.9477403 -20.75 50.3125 C-19.875 52.1875 -19.875 52.1875 -20.875 55.1875 C-21.38160156 54.32125 -21.38160156 54.32125 -21.8984375 53.4375 C-22.34445313 52.695 -22.79046875 51.9525 -23.25 51.1875 C-23.91128906 50.07375 -23.91128906 50.07375 -24.5859375 48.9375 C-25.01132813 48.36 -25.43671875 47.7825 -25.875 47.1875 C-26.535 47.1875 -27.195 47.1875 -27.875 47.1875 C-26.66151845 51.2013236 -25.50273046 54.87850609 -22.875 58.1875 C-20.28982413 58.68809916 -20.28982413 58.68809916 -17.875 58.1875 C-17.545 57.8575 -17.215 57.5275 -16.875 57.1875 C-17.17823582 51.22386217 -18.14314164 47.85232295 -21.875 43.1875 C-22.205 43.1875 -22.535 43.1875 -22.875 43.1875 Z M-56.875 45.1875 C-56.875 45.8475 -56.875 46.5075 -56.875 47.1875 C-58.855 48.1775 -58.855 48.1775 -60.875 49.1875 C-60.36464169 53.5765815 -59.35285723 56.52458062 -56.875 60.1875 C-52.88044473 59.57295304 -50.13033664 57.48103263 -46.875 55.1875 C-48.17655006 51.10785719 -48.17655006 51.10785719 -49.875 47.1875 C-50.535 47.1875 -51.195 47.1875 -51.875 47.1875 C-51.545 46.1975 -51.215 45.2075 -50.875 44.1875 C-54.6513932 43.8893576 -54.6513932 43.8893576 -56.875 45.1875 Z M-4.875 49.1875 C-5.27547444 51.51025177 -5.6147104 53.84489357 -5.875 56.1875 C-6.525896 56.23986816 -7.17679199 56.29223633 -7.84741211 56.34619141 C-12.26164273 57.57282141 -15.57133769 60.06288704 -19.31640625 62.6484375 C-20.5234446 63.46799423 -20.5234446 63.46799423 -21.75486755 64.30410767 C-24.32101651 66.04931114 -26.87919918 67.80581774 -29.4375 69.5625 C-31.16291645 70.73770625 -32.88882277 71.91219364 -34.61523438 73.0859375 C-37.7810016 75.24232994 -40.94548007 77.40052369 -44.10375977 79.56787109 C-44.73709732 80.00231537 -45.37043488 80.43675964 -46.02296448 80.8843689 C-48.00506206 82.2790144 -49.94311283 83.72429493 -51.875 85.1875 C-50.46871351 89.96887407 -47.80846236 93.22927624 -43.875 96.1875 C-37.72067183 99.54054776 -30.92634319 101.55135935 -23.875 101.1875 C-20.96575658 99.96151355 -20.96575658 99.96151355 -18.875 98.1875 C-17.885 97.8575 -16.895 97.5275 -15.875 97.1875 C-15.38 92.2375 -15.38 92.2375 -14.875 87.1875 C-14.215 87.1875 -13.555 87.1875 -12.875 87.1875 C-11.79974806 84.53521188 -10.78043849 81.90381546 -9.875 79.1875 C-9.215 79.1875 -8.555 79.1875 -7.875 79.1875 C-6.64553545 77.49283265 -5.4212971 75.79381877 -4.23828125 74.06640625 C-1.97317312 70.944581 0.79873552 68.36047763 3.6796875 65.8125 C6.3719522 62.78552131 7.07879718 59.17414339 7.125 55.1875 C5.99610062 52.27072648 4.4760964 50.24014115 2.125 48.1875 C-1.76984328 46.63137637 -1.76984328 46.63137637 -4.875 49.1875 Z M-29.875 48.1875 C-31.195 49.5075 -32.515 50.8275 -33.875 52.1875 C-31.895 55.8175 -29.915 59.4475 -27.875 63.1875 C-27.215 63.1875 -26.555 63.1875 -25.875 63.1875 C-26.04 62.094375 -26.205 61.00125 -26.375 59.875 C-26.875 56.1875 -26.875 56.1875 -26.875 53.1875 C-27.865 52.8575 -28.855 52.5275 -29.875 52.1875 C-29.545 50.8675 -29.215 49.5475 -28.875 48.1875 C-29.205 48.1875 -29.535 48.1875 -29.875 48.1875 Z M-35.875 52.1875 C-36.205 52.8475 -36.535 53.5075 -36.875 54.1875 C-35.65167094 56.89876665 -35.65167094 56.89876665 -33.9375 59.8125 C-33.37160156 60.81539062 -32.80570312 61.81828125 -32.22265625 62.8515625 C-31.77792969 63.62242188 -31.33320313 64.39328125 -30.875 65.1875 C-30.215 65.1875 -29.555 65.1875 -28.875 65.1875 C-30.28792095 60.3600201 -32.30474154 56.4712641 -34.875 52.1875 C-35.205 52.1875 -35.535 52.1875 -35.875 52.1875 Z M-41.875 56.1875 C-41.22150367 63.73788422 -41.22150367 63.73788422 -39.875 71.1875 C-39.215 71.1875 -38.555 71.1875 -37.875 71.1875 C-37.215 69.5375 -36.555 67.8875 -35.875 66.1875 C-34.555 66.5175 -33.235 66.8475 -31.875 67.1875 C-33.27664889 62.42189379 -36.02911474 59.22867557 -39.875 56.1875 C-40.535 56.1875 -41.195 56.1875 -41.875 56.1875 Z M-45.875 59.1875 C-45.545 61.8275 -45.215 64.4675 -44.875 67.1875 C-46.195 65.5375 -47.515 63.8875 -48.875 62.1875 C-49.865 62.6825 -49.865 62.6825 -50.875 63.1875 C-50.545 65.1675 -50.215 67.1475 -49.875 69.1875 C-51.525 67.8675 -53.175 66.5475 -54.875 65.1875 C-54.875 69.14880371 -53.52622875 70.01664401 -50.875 72.875 C-50.1325 73.68324219 -49.39 74.49148437 -48.625 75.32421875 C-48.0475 75.93910156 -47.47 76.55398437 -46.875 77.1875 C-46.18792445 74.69685112 -45.875 72.80863708 -45.875 70.1875 C-45.42125 70.6825 -44.9675 71.1775 -44.5 71.6875 C-42.99864481 73.41359337 -42.99864481 73.41359337 -40.875 73.1875 C-41.18352185 71.228536 -41.4969418 69.27034287 -41.8125 67.3125 C-41.98652344 66.22195312 -42.16054687 65.13140625 -42.33984375 64.0078125 C-42.73051159 61.24928454 -42.73051159 61.24928454 -43.875 59.1875 C-44.535 59.1875 -45.195 59.1875 -45.875 59.1875 Z M-3.875 77.1875 C-7.96415269 81.60154428 -11.50950406 85.6216272 -13.875 91.1875 C-13.215 91.8475 -12.555 92.5075 -11.875 93.1875 C-6.94309363 91.00370269 -6.94309363 91.00370269 -3.9375 86.9375 C-3.916875 86.36 -3.89625 85.7825 -3.875 85.1875 C-3.215 85.1875 -2.555 85.1875 -1.875 85.1875 C-1.545 83.2075 -1.215 81.2275 -0.875 79.1875 C-1.865 78.5275 -2.855 77.8675 -3.875 77.1875 Z M-70.875 82.1875 C-70.875 88.1275 -70.875 94.0675 -70.875 100.1875 C-70.545 100.1875 -70.215 100.1875 -69.875 100.1875 C-69.81441406 99.56101562 -69.75382812 98.93453125 -69.69140625 98.2890625 C-69.60761719 97.47179687 -69.52382812 96.65453125 -69.4375 95.8125 C-69.35628906 95.00039062 -69.27507812 94.18828125 -69.19140625 93.3515625 C-68.875 91.1875 -68.875 91.1875 -67.875 89.1875 C-68.15741883 86.8474583 -68.48750787 84.51245277 -68.875 82.1875 C-69.535 82.1875 -70.195 82.1875 -70.875 82.1875 Z M9.125 90.1875 C10.125 92.1875 10.125 92.1875 10.125 92.1875 Z M-6.875 91.1875 C-6.545 91.8475 -6.215 92.5075 -5.875 93.1875 C-5.545 92.5275 -5.215 91.8675 -4.875 91.1875 C-5.535 91.1875 -6.195 91.1875 -6.875 91.1875 Z M-8.875 93.1875 C-8.545 93.8475 -8.215 94.5075 -7.875 95.1875 C-7.545 94.5275 -7.215 93.8675 -6.875 93.1875 C-7.535 93.1875 -8.195 93.1875 -8.875 93.1875 Z M-9.875 98.1875 C-8.875 102.1875 -8.875 102.1875 -8.875 102.1875 Z M15.125 101.1875 C15.125 102.1775 15.125 103.1675 15.125 104.1875 C15.785 104.1875 16.445 104.1875 17.125 104.1875 C16.795 103.1975 16.465 102.2075 16.125 101.1875 C15.795 101.1875 15.465 101.1875 15.125 101.1875 Z M-50.875 104.1875 C-51.28492188 105.00734375 -51.69484375 105.8271875 -52.1171875 106.671875 C-56.875 116.1875 -56.875 116.1875 -58.02734375 118.1953125 C-60.92287391 125.00047556 -60.89678047 136.06794448 -58.875 143.1875 C-57.885 143.8475 -56.895 144.5075 -55.875 145.1875 C-55.215 143.8675 -54.555 142.5475 -53.875 141.1875 C-52.885 141.1875 -51.895 141.1875 -50.875 141.1875 C-51.060625 140.445 -51.24625 139.7025 -51.4375 138.9375 C-51.87869071 136.16430122 -51.55807699 134.83442332 -50.875 132.1875 C-51.25407282 130.00046615 -51.25407282 130.00046615 -51.875 128.1875 C-51.215 128.1875 -50.555 128.1875 -49.875 128.1875 C-48.06155665 120.10796224 -47.63841079 112.45497851 -47.875 104.1875 C-48.865 104.1875 -49.855 104.1875 -50.875 104.1875 Z M-9.875 104.1875 C-9.215 104.8475 -8.555 105.5075 -7.875 106.1875 C-7.875 105.5275 -7.875 104.8675 -7.875 104.1875 C-8.535 104.1875 -9.195 104.1875 -9.875 104.1875 Z M18.125 112.1875 C19.125 114.1875 19.125 114.1875 19.125 114.1875 Z M-7.875 118.1875 C-6.875 120.1875 -6.875 120.1875 -6.875 120.1875 Z M7.125 124.1875 C7.455 124.8475 7.785 125.5075 8.125 126.1875 C8.455 125.5275 8.785 124.8675 9.125 124.1875 C8.465 124.1875 7.805 124.1875 7.125 124.1875 Z M-68.875 129.1875 C-71.60986777 130.92537565 -71.60986777 130.92537565 -73.875 133.1875 C-73.875 133.8475 -73.875 134.5075 -73.875 135.1875 C-74.65875 135.47625 -75.4425 135.765 -76.25 136.0625 C-78.97171632 137.03662254 -78.97171632 137.03662254 -80.875 139.1875 C-81.25341038 147.75218836 -79.23486388 155.38949034 -75.875 163.1875 C-75.215 163.1875 -74.555 163.1875 -73.875 163.1875 C-72.4143715 160.54011084 -71.875 159.29301666 -71.875 156.1875 C-71.215 156.1875 -70.555 156.1875 -69.875 156.1875 C-69.875 155.5275 -69.875 154.8675 -69.875 154.1875 C-69.215 154.1875 -68.555 154.1875 -67.875 154.1875 C-67.875 153.5275 -67.875 152.8675 -67.875 152.1875 C-67.215 152.1875 -66.555 152.1875 -65.875 152.1875 C-65.875 144.9275 -65.875 137.6675 -65.875 130.1875 C-66.865 129.8575 -67.855 129.5275 -68.875 129.1875 Z M-62.875 129.1875 C-63.098293 131.24843408 -63.30302887 133.3113839 -63.5 135.375 C-63.61601563 136.52355469 -63.73203125 137.67210937 -63.8515625 138.85546875 C-63.87523426 142.22080416 -63.34919799 144.19971706 -61.875 147.1875 C-61.545 147.1875 -61.215 147.1875 -60.875 147.1875 C-60.875 141.2475 -60.875 135.3075 -60.875 129.1875 C-61.535 129.1875 -62.195 129.1875 -62.875 129.1875 Z M7.125 129.1875 C7.455 130.1775 7.785 131.1675 8.125 132.1875 C8.785 131.8575 9.445 131.5275 10.125 131.1875 C9.135 130.5275 8.145 129.8675 7.125 129.1875 Z M19.125 130.1875 C20.125 134.1875 20.125 134.1875 20.125 134.1875 Z M-52.875 143.1875 C-52.545 143.8475 -52.215 144.5075 -51.875 145.1875 C-51.545 144.5275 -51.215 143.8675 -50.875 143.1875 C-51.535 143.1875 -52.195 143.1875 -52.875 143.1875 Z M-59.875 144.1875 C-58.875 147.1875 -58.875 147.1875 -58.875 147.1875 Z M10.125 146.1875 C10.455 146.8475 10.785 147.5075 11.125 148.1875 C11.785 147.8575 12.445 147.5275 13.125 147.1875 C12.135 146.8575 11.145 146.5275 10.125 146.1875 Z M-38.875 148.1875 C-37.875 150.1875 -37.875 150.1875 -37.875 150.1875 Z M-72.875 160.1875 C-71.875 163.1875 -71.875 163.1875 -71.875 163.1875 Z M25.125 163.1875 C25.125 163.8475 25.125 164.5075 25.125 165.1875 C25.785 164.8575 26.445 164.5275 27.125 164.1875 C26.465 163.8575 25.805 163.5275 25.125 163.1875 Z M-23.875 169.1875 C-23.875 169.8475 -23.875 170.5075 -23.875 171.1875 C-23.215 170.8575 -22.555 170.5275 -21.875 170.1875 C-22.535 169.8575 -23.195 169.5275 -23.875 169.1875 Z M25.125 172.1875 C25.455 172.8475 25.785 173.5075 26.125 174.1875 C26.455 173.5275 26.785 172.8675 27.125 172.1875 C26.465 172.1875 25.805 172.1875 25.125 172.1875 Z M-32.875 175.1875 C-31.875 177.1875 -31.875 177.1875 -31.875 177.1875 Z M11.125 183.1875 C10.465 184.8375 9.805 186.4875 9.125 188.1875 C11.1649719 186.82426257 11.1649719 186.82426257 13.125 185.1875 C13.125 184.5275 13.125 183.8675 13.125 183.1875 C12.465 183.1875 11.805 183.1875 11.125 183.1875 Z M1.125 198.1875 C1.125 200.1675 1.125 202.1475 1.125 204.1875 C1.455 204.1875 1.785 204.1875 2.125 204.1875 C2.125 202.2075 2.125 200.2275 2.125 198.1875 C1.795 198.1875 1.465 198.1875 1.125 198.1875 Z M53.125 198.1875 C48.69026665 203.37161838 48.69026665 203.37161838 46.875 209.75 C46.95978261 212.44549558 46.95978261 212.44549558 49.125 215.1875 C48.67125 214.6925 48.2175 214.1975 47.75 213.6875 C46.24864481 211.96140663 46.24864481 211.96140663 44.125 212.1875 C44.29 211.094375 44.455 210.00125 44.625 208.875 C45.19218184 205.31224127 45.19218184 205.31224127 45.125 202.1875 C40.58744813 205.33857769 38.38596705 208.23076455 36.125 213.1875 C36.23810085 216.02768387 36.23810085 216.02768387 37.125 218.1875 C33.125 218.1875 33.125 218.1875 31.125 217.1875 C30.5 215.125 30.5 215.125 30.125 213.1875 C28.475 212.8575 26.825 212.5275 25.125 212.1875 C24.3825 213.1775 23.64 214.1675 22.875 215.1875 C21.609375 216.875 21.609375 216.875 20.125 218.1875 C18.805 218.1875 17.485 218.1875 16.125 218.1875 C15.72868758 222.01107754 15.7637624 223.68906509 18.05859375 226.85546875 C18.88488281 227.68691406 19.71117187 228.51835937 20.5625 229.375 C25.04206161 233.93868483 25.04206161 233.93868483 26.125 237.1875 C27.115 237.5175 28.105 237.8475 29.125 238.1875 C29.888125 238.991875 30.65125 239.79625 31.4375 240.625 C34.29795492 243.35241051 36.34306528 244.22002833 40.125 245.1875 C40.125 245.8475 40.125 246.5075 40.125 247.1875 C40.785 247.1875 41.445 247.1875 42.125 247.1875 C42.125 247.8475 42.125 248.5075 42.125 249.1875 C44.105 249.5175 46.085 249.8475 48.125 250.1875 C48.125 249.5275 48.125 248.8675 48.125 248.1875 C49.115 247.8575 50.105 247.5275 51.125 247.1875 C51.0425 246.1975 50.96 245.2075 50.875 244.1875 C50.85063727 240.16764993 52.29098853 237.553523 54.16796875 234.078125 C58.15453514 226.20262242 56.19143706 215.13708039 55.75 206.5625 C55.70383545 205.49539795 55.70383545 205.49539795 55.65673828 204.40673828 C55.55444615 202.66098086 55.3486562 200.92189054 55.125 199.1875 C54.465 198.8575 53.805 198.5275 53.125 198.1875 Z M-6.875 201.1875 C-6.215 201.8475 -5.555 202.5075 -4.875 203.1875 C-4.875 202.5275 -4.875 201.8675 -4.875 201.1875 C-5.535 201.1875 -6.195 201.1875 -6.875 201.1875 Z M-46.875 235.1875 C-45.875 237.1875 -45.875 237.1875 -45.875 237.1875 Z M-14.875 259.1875 C-14.875 259.8475 -14.875 260.5075 -14.875 261.1875 C-14.215 261.1875 -13.555 261.1875 -12.875 261.1875 C-12.875 260.5275 -12.875 259.8675 -12.875 259.1875 C-13.535 259.1875 -14.195 259.1875 -14.875 259.1875 Z " fill="#000000" transform="translate(170.875,54.8125)"/>
<path d="M0 0 C0.99 0.495 0.99 0.495 2 1 C2 3.97 2 6.94 2 10 C1.34 10 0.68 10 0 10 C0 6.7 0 3.4 0 0 Z " fill="#000000" transform="translate(105,250)"/>
<path d="M0 0 C2.20576989 2.10986685 3.18620107 3.67969697 4.16015625 6.6015625 C4.19969859 8.93456075 4.20417357 11.26864439 4.16015625 13.6015625 C6.11501953 13.56289063 6.11501953 13.56289063 8.109375 13.5234375 C12.8346543 13.52713273 17.32337311 14.04493988 21.97265625 14.8515625 C22.74947754 14.98433594 23.52629883 15.11710937 24.32666016 15.25390625 C32.4000786 16.70996021 40.68728451 18.30283959 47.16015625 23.6015625 C45.28515625 28.3515625 45.28515625 28.3515625 44.16015625 30.6015625 C30.22636353 30.62489298 16.29257382 30.64247599 2.3587656 30.65337467 C-4.11052055 30.65860418 -10.57979364 30.66570306 -17.04907227 30.67700195 C-23.28654675 30.68782842 -29.52400862 30.69383882 -35.76149178 30.69643974 C-38.14704652 30.69829443 -40.53260054 30.70191586 -42.91814995 30.70729256 C-46.24679966 30.71449979 -49.57539654 30.71555358 -52.90405273 30.71508789 C-54.39945335 30.7204808 -54.39945335 30.7204808 -55.92506409 30.72598267 C-57.27759781 30.72392067 -57.27759781 30.72392067 -58.65745544 30.72181702 C-59.44558845 30.72273881 -60.23372145 30.7236606 -61.04573727 30.72461033 C-62.83984375 30.6015625 -62.83984375 30.6015625 -63.83984375 29.6015625 C-64.45856985 18.88304273 -63.81962961 7.9314868 -60.83984375 -2.3984375 C-60.17984375 -2.3984375 -59.51984375 -2.3984375 -58.83984375 -2.3984375 C-58.83984375 -3.0584375 -58.83984375 -3.7184375 -58.83984375 -4.3984375 C-40.99916474 -13.12054724 -16.01747635 -12.17464232 0 0 Z " fill="#000000" transform="translate(183.83984375,411.3984375)"/>
</svg>
